<svg xmlns="http://www.w3.org/2000/svg" version="1.1" xmlns:xlink="http://www.w3.org/1999/xlink" xmlns:svgjs="http://svgjs.com/svgjs" width="1440" height="560" preserveAspectRatio="none" viewBox="0 0 1440 560"><g mask="url(&quot;#SvgjsMask1005&quot;)" fill="none"><rect width="1440" height="560" x="0" y="0" fill="#0e2a47"></rect><path d="M1340.72 110.5L1390.29 110.5L1390.29 160.07L1340.72 160.07z" fill="#d3b714"></path><path d="M1299.13 236.19 a38.18 38.18 0 1 0 76.36 0 a38.18 38.18 0 1 0 -76.36 0z" fill="#d3b714"></path><path d="M293.75 227.06 a40.09 40.09 0 1 0 80.18 0 a40.09 40.09 0 1 0 -80.18 0z" fill="#d3b714"></path><path d="M860.94 267.86L865.89 267.86L865.89 298.29L860.94 298.29z" fill="#e73635"></path><path d="M1144.76 248.1L1151.71 248.1L1151.71 255.05L1144.76 255.05z" fill="#d3b714"></path><path d="M1011.88 148.02a17.42 17.42 0 1 0-25.71-23.52z" stroke="#d3b714"></path><path d="M1127.24 451.82L1127.88 451.82L1127.88 460.34L1127.24 460.34z" stroke="#e73635"></path><path d="M739.64 535.71L766.7 535.71L766.7 547.45L739.64 547.45z" stroke="#e73635"></path><path d="M45.4 64.6a54.05 54.05 0 1 0-49.26-96.23z" fill="#037b0b"></path><path d="M959.02 80.81 a55.39 55.39 0 1 0 110.78 0 a55.39 55.39 0 1 0 -110.78 0z" fill="#e73635"></path><path d="M1166.84 255.18L1219.94 255.18L1219.94 278.41L1166.84 278.41z" stroke="#037b0b"></path><path d="M258.37 64.03L287.65 64.03L287.65 109.72L258.37 109.72z" stroke="#d3b714"></path><path d="M474.16 275.57L527.18 275.57L527.18 328.59L474.16 328.59z" fill="#d3b714"></path><path d="M938.91 251.51L973.15 251.51L973.15 285.75L938.91 285.75z" stroke="#037b0b"></path><path d="M727.99 210.59a47.98 47.98 0 1 0 95.28 11.35z" stroke="#e73635"></path><path d="M1051.35 437.88a38.95 38.95 0 1 0-76.96 12.06z" fill="#037b0b"></path><path d="M399.23 209.42 a34.42 34.42 0 1 0 68.84 0 a34.42 34.42 0 1 0 -68.84 0z" fill="#037b0b"></path><path d="M144.73 426.08 a25.98 25.98 0 1 0 51.96 0 a25.98 25.98 0 1 0 -51.96 0z" fill="#037b0b"></path><path d="M35.06 474.75L61.14 474.75L61.14 500.83L35.06 500.83z" stroke="#d3b714"></path><path d="M899.36 92.65 a27.37 27.37 0 1 0 54.74 0 a27.37 27.37 0 1 0 -54.74 0z" fill="#d3b714"></path><path d="M1192.78 232.87a28.49 28.49 0 1 0-56.68-5.84z" stroke="#e73635"></path><path d="M1184.9 369.05 a43.09 43.09 0 1 0 86.18 0 a43.09 43.09 0 1 0 -86.18 0z" stroke="#037b0b"></path><path d="M1129.27 42.17 a49.17 49.17 0 1 0 98.34 0 a49.17 49.17 0 1 0 -98.34 0z" fill="#d3b714"></path><path d="M250.2 437.63L265.8 437.63L265.8 493.15L250.2 493.15z" fill="#e73635"></path><path d="M1117.31 223.83L1165.64 223.83L1165.64 272.16L1117.31 272.16z" stroke="#d3b714"></path><path d="M637.84 20.91 a49.33 49.33 0 1 0 98.66 0 a49.33 49.33 0 1 0 -98.66 0z" stroke="#037b0b"></path><path d="M107 45.27 a0.39 0.39 0 1 0 0.78 0 a0.39 0.39 0 1 0 -0.78 0z" stroke="#e73635"></path><path d="M1367.99 545.73L1402.9 545.73L1402.9 580.96L1367.99 580.96z" fill="#e73635"></path><path d="M1290.16 218.13 a0.24 0.24 0 1 0 0.48 0 a0.24 0.24 0 1 0 -0.48 0z" fill="#037b0b"></path><path d="M1230.7 515.51 a6.67 6.67 0 1 0 13.34 0 a6.67 6.67 0 1 0 -13.34 0z" stroke="#d3b714"></path><path d="M1030.4 518.84 a16.51 16.51 0 1 0 33.02 0 a16.51 16.51 0 1 0 -33.02 0z" stroke="#d3b714"></path><path d="M42.84 321.23 a19.85 19.85 0 1 0 39.7 0 a19.85 19.85 0 1 0 -39.7 0z" fill="#d3b714"></path><path d="M1366.17 10.71a28.33 28.33 0 1 0 26.71 49.97z" stroke="#037b0b"></path></g><defs><mask id="SvgjsMask1005"><rect width="1440" height="560" fill="#ffffff"></rect></mask></defs></svg>